<?xml version="1.0" encoding="UTF-8"?>
<svg viewBox="0 0 227.125 90.144" xmlns="http://www.w3.org/2000/svg">
 <g transform="translate(-86.085 -710.34)" fill-rule="evenodd">
  <path d="m100.8 796.78c75.864 5.131 132 4.757 199.2 0 24.619-1.743 11.944-37.017-14.4-23.785 42.303-59.296-101.23-95.659-108-20.388-9.137-41.052-82.329-14.447-58.4 12.912-25.528-17.016-49.633 29.149-18.4 31.261z" fill="#5cbcfc"/>
  <path d="m114.32 792.97c63.167 4.092 109.91 3.793 165.86 0 20.499-1.389 9.945-29.519-11.989-18.967 35.221-47.282-84.287-76.278-89.924-16.257-7.608-32.735-68.55-11.52-48.626 10.296-21.254-13.569-41.325 23.244-15.32 24.928z" fill="#badaff"/>
  <path d="m222.14 731.31c3.793-2.277 9.234-1.706 12.15 1.276s2.206 7.247-1.589 9.524-9.235 1.707-12.151-1.276-2.205-7.246 1.59-9.524z" fill="#fff"/>
  <path d="m195.33 736.71c4.552-2.732 11.078-2.047 14.578 1.532s2.646 8.693-1.906 11.425-11.079 2.048-14.579-1.531-2.645-8.694 1.907-11.426z" fill="#fff"/>
  <path d="m243.23 737.2c3.036-1.821 7.388-1.364 9.72 1.022 2.332 2.384 1.764 5.796-1.27 7.617-3.036 1.821-7.388 1.364-9.72-1.021s-1.764-5.796 1.27-7.618z" fill="#fff"/>
  <path d="m256.3,747.715c2.277-1.367 5.541-1.023 7.292.766s1.324,4.348-.953,5.715-5.542,1.023-7.292-.765-1.324-4.348.953-5.716z" fill="#fff"/>
  <path d="m261.768,756.443c1.519-.911 3.695-.683 4.861.512 1.168,1.193.883,2.898-.634,3.809s-3.695.683-4.862-.511-.882-2.898.635-3.81z" fill="#fff"/>
 </g>
</svg>
